<svg xmlns="http://www.w3.org/2000/svg" xmlns:xlink="http://www.w3.org/1999/xlink" width="500" zoomAndPan="magnify" viewBox="0 0 375 374.999991" height="500" preserveAspectRatio="xMidYMid meet" version="1.0"><path fill="#ffffff" d="M 187.0625 0.144531 C 132.609375 0.144531 83.429688 23.273438 49.179688 60.449219 L 22.832031 43.765625 C 20.785156 42.59375 18.734375 42.007812 16.6875 42.007812 C 10.832031 42.007812 5.269531 46.691406 4.976562 53.132812 L 0.292969 158.226562 C 0 165.25 5.855469 170.519531 12.003906 170.519531 C 13.757812 170.519531 15.515625 170.226562 17.5625 169.058594 L 111.242188 120.167969 C 119.144531 116.070312 119.730469 104.65625 112.121094 99.972656 L 89.871094 85.917969 C 115.046875 61.914062 149.296875 46.984375 187.0625 46.984375 C 264.929688 46.984375 328.160156 109.925781 328.160156 187.5 C 328.160156 265.074219 264.929688 328.015625 187.355469 328.015625 C 113.875 328.015625 53.570312 271.808594 47.132812 200.378906 L 2.632812 223.214844 C 19.320312 309.574219 95.433594 374.855469 187.0625 374.855469 C 290.691406 374.855469 375 290.835938 375 187.5 C 375 84.164062 290.984375 0.144531 187.0625 0.144531 Z M 187.0625 0.144531 " fill-opacity="1" fill-rule="nonzero"/></svg>