<svg width="24" height="24" viewBox="0 0 24 24" fill="none" xmlns="http://www.w3.org/2000/svg"><path d="M11.4563 2.66476C11.5045 2.56113 11.5813 2.47343 11.6777 2.41197C11.774 2.35052 11.886 2.31787 12.0003 2.31787C12.1146 2.31787 12.2265 2.35052 12.3228 2.41197C12.4192 2.47343 12.496 2.56113 12.5443 2.66476L15.4083 8.80176C15.4679 8.92949 15.5705 9.03216 15.6983 9.09176L21.8352 11.9558C21.9389 12.004 22.0266 12.0808 22.088 12.1772C22.1495 12.2735 22.1821 12.3855 22.1821 12.4998C22.1821 12.6141 22.1495 12.726 22.088 12.8224C22.0266 12.9187 21.9389 12.9955 21.8352 13.0438L15.6983 15.9078C15.5705 15.9674 15.4679 16.07 15.4083 16.1978L12.5443 22.3348C12.496 22.4384 12.4192 22.5261 12.3228 22.5876C12.2265 22.649 12.1146 22.6817 12.0003 22.6817C11.886 22.6817 11.774 22.649 11.6777 22.5876C11.5813 22.5261 11.5045 22.4384 11.4563 22.3348L8.59225 16.1978C8.53265 16.07 8.42998 15.9674 8.30225 15.9078L2.16525 13.0438C2.06162 12.9955 1.97392 12.9187 1.91246 12.8224C1.85101 12.726 1.81836 12.6141 1.81836 12.4998C1.81836 12.3855 1.85101 12.2735 1.91246 12.1772C1.97392 12.0808 2.06162 12.004 2.16525 11.9558L8.30225 9.09176C8.42998 9.03216 8.53265 8.92949 8.59225 8.80176L11.4563 2.66476Z" fill="currentColor" stroke="#ffffff" stroke-width="1.5" stroke-linecap="round" stroke-linejoin="round"></path></svg>