<svg width="20" height="20" viewBox="0 0 20 20" fill="none" xmlns="http://www.w3.org/2000/svg"><path d="M11.4417 17.4998C11.2953 17.7526 11.0851 17.9625 10.8321 18.1084C10.579 18.2542 10.2921 18.331 10 18.331C9.70792 18.331 9.42097 18.2542 9.16794 18.1084C8.9149 17.9625 8.70467 17.7526 8.55833 17.4998M15 6.99984C15 5.58567 14.4733 4.229 13.5358 3.229C12.5975 2.229 11.325 1.6665 10 1.6665C8.67417 1.6665 7.4025 2.22817 6.46417 3.229C5.52667 4.229 5 5.58567 5 6.99984C5 13.2223 2.5 14.9998 2.5 14.9998H17.5C17.5 14.9998 15 13.2223 15 6.99984Z" stroke="#ffffff" stroke-width="1.5" stroke-linecap="round" stroke-linejoin="round"></path></svg>