<svg xmlns="http://www.w3.org/2000/svg" xmlns:xlink="http://www.w3.org/1999/xlink" width="300" zoomAndPan="magnify" viewBox="0 0 224.87999 374.999991" height="500" preserveAspectRatio="xMidYMid meet" version="1.0"><defs><clipPath id="c36db65014"><path d="M 0 5.695312 L 224.761719 5.695312 L 224.761719 374.898438 L 0 374.898438 Z M 0 5.695312 " clip-rule="nonzero"/></clipPath></defs><g clip-path="url(#c36db65014)"><path fill="#8c52ff" d="M 32.179688 375.246094 L 64.285156 375.246094 L 64.285156 343.113281 L 32.179688 343.113281 Z M 112.441406 198.503906 C 139.007812 198.503906 160.4375 176.894531 160.4375 150.300781 L 160.597656 53.898438 C 160.597656 27.222656 139.085938 5.695312 112.441406 5.695312 C 85.875 5.695312 64.285156 27.222656 64.285156 53.898438 L 64.285156 150.300781 C 64.285156 176.894531 85.875 198.503906 112.441406 198.503906 Z M 96.386719 375.246094 L 128.492188 375.246094 L 128.492188 343.113281 L 96.386719 343.113281 Z M 160.597656 375.246094 L 192.699219 375.246094 L 192.699219 343.113281 L 160.597656 343.113281 Z M 224.804688 150.300781 L 197.515625 150.300781 C 197.515625 198.503906 156.824219 232.246094 112.441406 232.246094 C 68.136719 232.246094 27.363281 198.503906 27.363281 150.300781 L 0.0742188 150.300781 C 0.0742188 205.171875 43.738281 250.484375 96.386719 258.273438 L 96.386719 310.976562 L 128.492188 310.976562 L 128.492188 258.273438 C 181.144531 250.484375 224.804688 205.171875 224.804688 150.300781 Z M 224.804688 150.300781 " fill-opacity="1" fill-rule="nonzero"/></g></svg>