<svg xmlns="http://www.w3.org/2000/svg" xmlns:xlink="http://www.w3.org/1999/xlink" width="500" zoomAndPan="magnify" viewBox="0 0 375 374.999991" height="500" preserveAspectRatio="xMidYMid meet" version="1.0"><defs><clipPath id="584ce1ab4e"><path d="M 3.066406 0 L 372.066406 0 L 372.066406 375 L 3.066406 375 Z M 3.066406 0 " clip-rule="nonzero"/></clipPath></defs><g clip-path="url(#584ce1ab4e)"><path fill="#ffffff" d="M 261.949219 290.078125 C 264.828125 290.078125 267.679688 290.949219 270.121094 292.664062 L 321.734375 328.96875 L 309.375 260.980469 C 308.5625 256.535156 309.929688 251.941406 313.039062 248.6875 C 334.558594 226.042969 343.71875 201.363281 343.71875 166.164062 C 343.71875 129.714844 327.695312 95.359375 298.589844 69.402344 C 268.988281 43.039062 229.585938 28.53125 187.566406 28.53125 C 101.496094 28.5625 31.449219 90.269531 31.449219 166.164062 C 31.449219 242.058594 101.46875 303.796875 187.566406 303.796875 C 216.441406 303.796875 236.914062 300.078125 256.074219 291.386719 C 257.9375 290.511719 259.941406 290.078125 261.949219 290.078125 M 341.886719 374.691406 C 339.035156 374.691406 336.15625 373.820312 333.714844 372.105469 L 260.234375 320.394531 C 239.414062 328.589844 217.140625 332.136719 187.597656 332.136719 C 85.824219 332.136719 3.066406 257.695312 3.066406 166.164062 C 3.066406 74.632812 85.824219 0.164062 187.566406 0.164062 C 236.535156 0.164062 282.683594 17.226562 317.429688 48.242188 C 352.644531 79.632812 372.066406 121.519531 372.066406 166.164062 C 372.066406 205.988281 361.660156 236.128906 338.511719 262.8125 L 355.84375 358.007812 C 356.859375 363.675781 354.390625 369.402344 349.53125 372.511719 C 347.175781 373.964844 344.53125 374.691406 341.886719 374.691406 " fill-opacity="1" fill-rule="nonzero"/></g></svg>