<svg xmlns="http://www.w3.org/2000/svg" xmlns:xlink="http://www.w3.org/1999/xlink" width="500" zoomAndPan="magnify" viewBox="0 0 375 374.999991" height="500" preserveAspectRatio="xMidYMid meet" version="1.0"><defs><clipPath id="5568ca4928"><path d="M 0 8.203125 L 374 8.203125 L 374 366.703125 L 0 366.703125 Z M 0 8.203125 " clip-rule="nonzero"/></clipPath></defs><path fill="#ffffff" d="M 150.8125 286.164062 C 150.648438 285.957031 150.484375 285.753906 150.320312 285.589844 C 150.277344 285.300781 150.277344 285.015625 150.277344 284.726562 C 150.277344 284.523438 150.277344 284.277344 150.320312 284.070312 C 150.441406 284.769531 150.605469 285.464844 150.8125 286.164062 Z M 150.8125 286.164062 " fill-opacity="1" fill-rule="nonzero"/><g clip-path="url(#5568ca4928)"><path fill="#ffffff" d="M 370.074219 82.464844 C 370.117188 82.34375 370.117188 82.261719 370.117188 82.179688 C 369.953125 81.726562 369.828125 81.234375 369.664062 80.785156 C 369.625 80.703125 369.625 80.660156 369.625 80.660156 L 369.582031 80.578125 C 368.722656 77.746094 367.738281 74.917969 366.710938 72.167969 C 366.667969 72.128906 366.667969 72.085938 366.667969 72.046875 C 366.667969 72.003906 366.628906 71.964844 366.628906 71.964844 C 365.027344 67.367188 363.304688 63.347656 361.621094 59.984375 C 357.765625 52.066406 354.277344 47.632812 353.90625 47.140625 C 353.867188 47.140625 353.867188 47.101562 353.867188 47.101562 C 353.824219 47.058594 353.824219 47.058594 353.824219 47.058594 C 351.691406 44.476562 349.597656 41.890625 347.503906 39.347656 C 346.519531 38.15625 345.535156 36.96875 344.550781 35.777344 C 344.550781 35.777344 344.550781 35.777344 344.550781 35.738281 C 344.507812 35.738281 344.507812 35.695312 344.507812 35.695312 C 344.46875 35.65625 344.425781 35.613281 344.425781 35.613281 C 343.933594 35.160156 343.441406 34.710938 342.949219 34.257812 C 340.527344 32.125 338.023438 30.117188 335.6875 28.351562 C 333.511719 26.710938 331.417969 25.273438 329.652344 24.085938 C 327.890625 22.894531 326.371094 21.953125 325.386719 21.335938 C 324.6875 20.882812 324.195312 20.597656 324.03125 20.515625 C 323.992188 20.515625 323.992188 20.472656 323.992188 20.472656 C 323.992188 20.472656 323.949219 20.433594 323.949219 20.433594 C 322.636719 19.734375 321.28125 19.039062 319.929688 18.421875 C 319.847656 18.382812 319.847656 18.382812 319.847656 18.382812 C 318.082031 17.5625 316.316406 16.824219 314.59375 16.125 C 312.582031 15.347656 310.613281 14.648438 308.640625 13.992188 C 307.863281 13.703125 307.082031 13.5 306.304688 13.253906 C 305.320312 12.964844 304.375 12.679688 303.429688 12.433594 C 303.0625 12.308594 302.734375 12.226562 302.40625 12.144531 C 296.699219 10.464844 290.914062 9.398438 285.128906 8.824219 C 285.085938 8.824219 285.085938 8.824219 285.085938 8.824219 C 285.003906 8.78125 284.921875 8.78125 284.839844 8.78125 C 284.800781 8.78125 284.800781 8.78125 284.800781 8.78125 C 284.71875 8.78125 284.636719 8.742188 284.59375 8.742188 C 284.429688 8.742188 284.347656 8.699219 284.347656 8.699219 C 278.808594 8.207031 273.269531 8.207031 267.605469 8.617188 C 265.71875 8.78125 263.828125 8.988281 261.941406 9.316406 C 261.902344 9.316406 261.902344 9.316406 261.902344 9.316406 C 261.613281 9.355469 261.367188 9.398438 261.121094 9.4375 C 257.347656 10.054688 253.941406 10.792969 250.945312 11.652344 C 250.902344 11.695312 250.902344 11.695312 250.902344 11.695312 C 249.34375 12.144531 247.867188 12.597656 246.472656 13.046875 C 242.492188 14.402344 239.414062 15.796875 237.277344 16.90625 C 235.105469 18.011719 233.914062 18.832031 233.667969 18.957031 C 233.625 18.996094 233.625 18.996094 233.625 18.996094 C 233.585938 18.996094 233.585938 18.996094 233.585938 18.996094 L 233.585938 19.039062 C 222.914062 24.988281 213.683594 32.78125 205.269531 41.765625 C 203.628906 33.070312 196.035156 26.503906 186.882812 26.503906 C 177.609375 26.503906 169.894531 33.273438 168.417969 42.09375 C 165.257812 38.730469 161.976562 35.492188 158.527344 32.453125 C 153.808594 28.269531 148.761719 24.371094 143.304688 21.050781 C 139.199219 18.546875 134.890625 16.496094 130.582031 14.445312 C 129.800781 14.117188 129.023438 13.828125 128.199219 13.539062 C 127.542969 13.253906 126.886719 13.007812 126.191406 12.761719 C 116.914062 9.972656 107.4375 8.578125 97.832031 8.578125 C 92.910156 8.578125 87.941406 8.945312 82.976562 9.644531 C 82.9375 9.644531 82.9375 9.644531 82.894531 9.683594 C 78.957031 10.175781 74.648438 11.203125 70.871094 12.269531 C 69.597656 12.636719 68.410156 13.007812 67.300781 13.335938 C 66.933594 13.457031 66.5625 13.582031 66.234375 13.703125 C 65.988281 13.789062 65.78125 13.871094 65.578125 13.910156 C 65.535156 13.910156 65.535156 13.910156 65.535156 13.910156 C 65.535156 13.910156 65.535156 13.953125 65.496094 13.953125 C 62.789062 14.855469 60.859375 15.59375 60.449219 15.757812 C 60.40625 15.757812 60.40625 15.796875 60.367188 15.796875 C 60.367188 15.839844 60.367188 15.839844 60.367188 15.839844 C 49.492188 20.144531 39.558594 25.972656 30.941406 34.175781 C 27.578125 37.417969 24.785156 41.109375 21.789062 44.640625 C 21.707031 44.722656 21.585938 44.84375 21.503906 44.96875 C 20.96875 45.625 20.273438 46.566406 19.65625 47.46875 C 19.617188 47.511719 19.617188 47.511719 19.617188 47.550781 C 19.574219 47.59375 19.574219 47.632812 19.535156 47.675781 L 19.042969 48.414062 L 19 48.453125 C 18.550781 49.109375 18.179688 49.683594 18.015625 49.929688 C 17.933594 50.054688 17.890625 50.097656 17.890625 50.097656 C 11.859375 59.65625 7.222656 69.871094 4.0625 80.742188 C 4.0625 80.742188 3.941406 81.113281 3.816406 81.605469 C 3.609375 82.261719 3.363281 83.246094 3.117188 84.105469 C 2.914062 85.007812 2.707031 85.910156 2.667969 86.40625 C 2.667969 86.445312 2.667969 86.445312 2.667969 86.445312 C 0.65625 96.210938 0 106.054688 0.207031 116.027344 C 0.207031 116.066406 0.207031 116.109375 0.246094 116.191406 L 0.246094 116.519531 C 0.289062 116.601562 0.289062 116.640625 0.289062 116.683594 C 0.945312 124.273438 2.09375 131.699219 3.859375 139 C 5.664062 146.304688 8.085938 153.402344 11.367188 160.335938 C 15.675781 169.484375 21.339844 177.851562 27.085938 186.140625 L 27.085938 186.179688 C 27.207031 186.34375 27.332031 186.550781 27.453125 186.714844 C 27.453125 186.714844 27.496094 186.753906 27.496094 186.753906 L 28.683594 188.398438 C 28.726562 188.4375 28.726562 188.4375 28.726562 188.480469 C 28.808594 188.5625 28.890625 188.644531 28.972656 188.765625 C 30.941406 191.144531 32.953125 193.484375 34.882812 195.863281 C 42.144531 204.847656 50.394531 212.972656 58.191406 221.503906 C 58.148438 221.546875 58.109375 221.628906 58.027344 221.667969 L 58.3125 221.667969 C 58.519531 221.832031 58.683594 222.039062 58.890625 222.203125 C 59.136719 222.40625 59.339844 222.613281 59.585938 222.816406 C 60.816406 223.96875 62.046875 225.117188 63.28125 226.304688 C 73.664062 236.191406 84.042969 246.082031 94.425781 256.007812 C 94.425781 256.050781 94.386719 256.050781 94.386719 256.089844 L 94.507812 256.089844 C 94.714844 256.296875 94.917969 256.5 95.125 256.707031 C 95.328125 256.910156 95.492188 257.074219 95.699219 257.28125 C 107.476562 267.578125 118.597656 278.574219 129.390625 289.898438 C 129.433594 289.9375 129.515625 290.019531 129.554688 290.0625 C 129.882812 290.429688 130.210938 290.757812 130.539062 291.128906 C 130.746094 291.332031 130.910156 291.539062 131.113281 291.742188 C 137.066406 297.898438 142.726562 304.339844 148.144531 310.945312 C 153.5625 317.546875 158.773438 324.359375 163.820312 331.25 C 169.28125 338.71875 174.574219 346.308594 179.414062 354.226562 L 179.457031 354.269531 L 186.71875 366.699219 L 188.074219 364.441406 L 189.632812 361.777344 L 192.015625 357.835938 L 192.792969 356.566406 C 198.867188 346.429688 205.515625 336.667969 212.820312 327.355469 C 212.941406 327.191406 213.023438 327.027344 213.148438 326.902344 C 213.3125 326.65625 213.519531 326.410156 213.683594 326.164062 C 213.722656 326.125 213.765625 326.042969 213.804688 326 C 214.542969 324.933594 215.242188 323.867188 216.0625 322.839844 C 223.816406 312.914062 231.65625 303.066406 240.4375 294 L 242.941406 291.292969 L 243.148438 291.085938 L 243.3125 290.882812 L 243.925781 290.183594 L 246.058594 287.84375 C 255.417969 278.082031 265.144531 268.726562 275.15625 259.617188 L 275.195312 259.578125 L 276.511719 258.347656 L 276.632812 258.265625 L 278.890625 256.132812 C 278.890625 256.132812 278.890625 256.132812 278.890625 256.089844 L 279.011719 255.96875 L 282.664062 252.523438 L 282.910156 252.316406 L 282.910156 252.273438 C 293.292969 242.429688 303.636719 232.625 314.019531 222.777344 C 314.265625 222.570312 314.46875 222.324219 314.714844 222.121094 C 315.042969 221.792969 315.371094 221.464844 315.699219 221.136719 C 315.660156 221.054688 315.660156 221.011719 315.660156 220.972656 C 315.742188 220.972656 315.78125 220.929688 315.863281 220.929688 C 320.914062 215.71875 325.917969 210.429688 330.761719 205.054688 C 335.605469 199.636719 340.324219 194.140625 344.835938 188.480469 C 345 188.273438 345.125 188.070312 345.246094 187.863281 C 345.492188 187.535156 345.699219 187.246094 345.90625 186.917969 C 345.945312 186.835938 346.027344 186.753906 346.070312 186.671875 C 349.96875 181.585938 353.496094 176.335938 356.613281 170.960938 C 359.734375 165.585938 362.484375 160.007812 364.78125 154.304688 C 367.285156 148.148438 369.253906 141.75 370.730469 135.183594 L 370.730469 135.144531 C 370.730469 135.101562 370.730469 135.101562 370.730469 135.101562 C 371.757812 130.425781 372.539062 125.625 373.03125 120.703125 C 373.152344 120.128906 373.234375 119.59375 373.316406 119.019531 C 375 104.785156 371.386719 87.882812 370.074219 82.464844 Z M 236.949219 64.824219 C 238.878906 64.824219 240.519531 71.839844 240.519531 79.472656 C 240.519531 99.613281 223.285156 114.179688 206.910156 124.3125 L 206.871094 115.574219 C 206.871094 86.035156 227.140625 64.824219 236.949219 64.824219 Z M 190.289062 228.234375 C 182.328125 221.667969 182.492188 213.011719 182.492188 209.976562 C 182.492188 202.019531 190.371094 194.261719 201.984375 193.6875 L 201.984375 245.054688 C 201.574219 245.09375 201.164062 245.09375 200.714844 245.09375 C 174.367188 245.09375 156.84375 225.566406 156.84375 201.320312 C 156.84375 184.253906 166.613281 169.484375 201.984375 150.445312 L 201.984375 173.09375 C 187.664062 175.84375 174.695312 188.644531 174.695312 205.75 C 174.695312 221.914062 186.308594 229.503906 189.796875 231.1875 C 190.371094 231.476562 191.027344 231.3125 191.398438 230.777344 L 191.480469 230.652344 C 191.441406 229.914062 190.945312 228.765625 190.289062 228.234375 Z M 187.007812 32.453125 C 194.105469 32.453125 199.894531 38.238281 199.894531 45.335938 C 199.894531 46.609375 199.6875 47.796875 199.359375 48.945312 C 198.496094 51.902344 196.609375 54.402344 194.066406 56.085938 C 192.054688 57.441406 189.59375 58.21875 186.964844 58.21875 C 183.929688 58.21875 181.140625 57.191406 178.964844 55.429688 C 177.078125 53.953125 175.597656 51.902344 174.820312 49.601562 C 174.328125 48.289062 174.082031 46.855469 174.082031 45.378906 C 174.121094 38.238281 179.90625 32.453125 187.007812 32.453125 Z M 163.863281 296.378906 C 164.148438 296.421875 164.476562 296.421875 164.765625 296.421875 C 172.851562 296.421875 179.375 289.855469 179.375 281.816406 C 179.375 273.730469 172.808594 267.167969 164.765625 267.167969 C 156.679688 267.167969 150.113281 273.730469 150.113281 281.816406 C 150.113281 282.554688 150.195312 283.25 150.320312 283.988281 C 150.320312 284.03125 150.320312 284.03125 150.320312 284.03125 L 150.320312 284.070312 C 150.402344 284.808594 150.566406 285.464844 150.8125 286.164062 C 150.648438 285.957031 150.484375 285.753906 150.320312 285.589844 C 142.398438 276.113281 134.234375 266.796875 125.78125 257.773438 C 125.164062 257.15625 124.589844 256.5 123.972656 255.886719 C 118.558594 250.550781 113.140625 245.21875 107.804688 239.804688 C 102.46875 234.386719 97.21875 228.929688 92.046875 223.351562 C 91.472656 222.695312 90.898438 222.078125 90.324219 221.421875 L 90.117188 221.21875 C 87.449219 218.550781 84.824219 215.800781 82.28125 213.011719 C 80.515625 211.085938 78.75 209.195312 77.027344 207.226562 C 72.757812 202.386719 68.53125 197.464844 64.386719 192.539062 C 63.609375 191.636719 62.910156 190.734375 62.171875 189.832031 L 60.652344 187.78125 C 60.652344 187.742188 60.613281 187.742188 60.613281 187.699219 C 56.261719 182.449219 51.914062 177.15625 47.972656 171.617188 C 44.320312 166.488281 41.078125 161.15625 38.453125 155.371094 L 37.179688 152.089844 L 37.179688 152.046875 C 35.085938 147.125 33.734375 141.996094 32.828125 136.824219 C 31.023438 125.378906 32.132812 106.507812 32.214844 105.441406 C 33.324219 97.523438 35.660156 89.890625 39.558594 82.753906 L 41.40625 79.265625 C 49.859375 64.703125 62.253906 54.9375 77.519531 48.496094 L 84.742188 45.582031 C 102.511719 39.058594 120.28125 39.058594 138.050781 46.28125 L 141.085938 47.550781 C 141.128906 47.550781 141.128906 47.550781 141.128906 47.59375 C 146.503906 49.765625 151.46875 52.597656 156.148438 55.839844 C 160.824219 59.082031 165.175781 62.773438 169.402344 66.671875 C 174 70.976562 178.429688 75.53125 182.164062 80.660156 C 182.371094 80.90625 182.535156 81.113281 182.699219 81.359375 L 185.449219 84.925781 C 185.613281 85.171875 185.734375 85.378906 185.898438 85.542969 L 185.898438 85.582031 C 186.1875 85.910156 186.515625 86.074219 186.882812 86.074219 L 187.046875 86.074219 C 187.871094 85.953125 188.609375 84.925781 189.347656 83.902344 L 192.21875 80.085938 C 197.308594 73.726562 202.808594 67.902344 208.878906 62.773438 C 210.5625 61.335938 212.285156 59.984375 214.050781 58.628906 C 199.769531 76.96875 202.066406 104.003906 202.066406 115.535156 L 202.066406 127.183594 C 200.671875 128.003906 199.277344 128.785156 197.921875 129.523438 C 174.902344 142.242188 148.105469 164.4375 148.105469 195.863281 C 148.105469 227.453125 170.019531 249.976562 200.015625 249.976562 C 200.714844 249.976562 201.410156 249.976562 202.109375 249.9375 L 202.109375 266.222656 L 202.191406 278.492188 C 202.191406 292.316406 192.097656 304.460938 179.660156 304.460938 C 171.453125 304.542969 166.652344 301.382812 163.863281 296.378906 Z M 329.285156 166.285156 C 329.285156 166.285156 329.285156 166.324219 329.285156 166.285156 C 329.160156 166.449219 329.121094 166.53125 329.121094 166.53125 C 322.101562 177.195312 314.101562 187.164062 305.605469 196.726562 C 303.511719 199.269531 301.417969 201.8125 299.246094 204.273438 C 296.863281 207.023438 294.402344 209.773438 291.941406 212.4375 C 289.109375 215.472656 286.234375 218.46875 283.324219 221.421875 C 282.910156 221.875 282.542969 222.285156 282.132812 222.734375 C 271.460938 234.304688 260.257812 245.425781 249.054688 256.460938 C 248.644531 256.910156 248.234375 257.363281 247.824219 257.773438 C 238.140625 268.234375 228.660156 278.941406 219.753906 290.101562 C 219.222656 290.757812 218.6875 291.414062 218.195312 292.070312 C 214.132812 297.609375 210.070312 303.105469 206.171875 308.769531 C 202.273438 314.429688 198.539062 320.175781 195.09375 326.082031 C 192.300781 330.882812 189.675781 335.804688 186.84375 340.933594 C 183.355469 333.550781 179.332031 326.617188 175.105469 319.847656 C 172.398438 315.457031 169.484375 311.191406 166.488281 306.964844 C 170.101562 308.441406 174.449219 309.382812 179.539062 309.382812 C 197.019531 309.382812 207.320312 295.679688 207.320312 278.53125 L 207.238281 249.648438 C 228.988281 247.394531 242.078125 234.796875 242.078125 211.042969 C 242.078125 187.246094 222.503906 172.519531 207.691406 172.519531 C 207.445312 172.519531 207.199219 172.519531 206.992188 172.558594 L 206.910156 147.699219 C 245.730469 125.667969 245.609375 88.496094 245.609375 78.609375 C 245.609375 66.179688 242.738281 57.6875 239.125 51.613281 C 237.894531 49.480469 235.964844 48.003906 233.789062 47.304688 C 237.359375 45.789062 240.316406 44.679688 240.726562 44.558594 C 249.382812 41.726562 258.003906 40.535156 266.578125 40.988281 L 266.660156 40.988281 C 267.195312 41.027344 267.726562 41.070312 268.300781 41.109375 L 268.386719 41.109375 C 275.976562 41.683594 283.570312 43.53125 291.160156 46.527344 C 291.203125 46.566406 291.242188 46.566406 291.242188 46.566406 C 301.707031 50.753906 309.875 55.921875 311.433594 56.90625 C 311.472656 56.945312 311.515625 56.945312 311.554688 56.988281 C 311.636719 57.070312 311.71875 57.113281 311.71875 57.113281 C 313.527344 58.34375 315.25 59.65625 316.933594 61.050781 C 322.921875 66.097656 328.09375 72.085938 332.28125 79.265625 C 332.566406 79.757812 333.386719 81.316406 334.125 82.671875 L 334.125 82.753906 C 337 87.921875 339.050781 93.296875 340.363281 98.835938 C 341.675781 104.375 342.335938 110.117188 342.457031 115.945312 L 342.457031 117.132812 C 342.457031 117.257812 342.5 117.339844 342.5 117.421875 C 342.417969 144.417969 330.761719 163.945312 329.285156 166.285156 Z M 207.117188 193.851562 C 222.011719 195.496094 228.167969 207.0625 228.167969 217.730469 C 228.167969 224.542969 225.542969 241.238281 207.28125 244.480469 Z M 207.117188 193.851562 " fill-opacity="1" fill-rule="nonzero"/></g></svg>