<svg xmlns="http://www.w3.org/2000/svg" xmlns:xlink="http://www.w3.org/1999/xlink" width="500" zoomAndPan="magnify" viewBox="0 0 375 374.999991" height="500" preserveAspectRatio="xMidYMid meet" version="1.0"><defs><clipPath id="1e66b0c92c"><path d="M 0 27.324219 L 374 27.324219 L 374 327 L 0 327 Z M 0 27.324219 " clip-rule="nonzero"/></clipPath></defs><g clip-path="url(#1e66b0c92c)"><path fill="#ffffff" d="M 173.414062 27.851562 C 170.203125 27.851562 166.933594 29.066406 164.265625 31.714844 L 74.625 121.355469 L 37.3125 121.355469 C 16.699219 121.355469 0 138.050781 0 158.667969 L 0 195.980469 C 0 216.597656 16.699219 233.292969 37.3125 233.292969 L 74.625 233.292969 L 164.265625 322.933594 C 166.933594 325.601562 170.203125 326.796875 173.414062 326.796875 C 180.128906 326.796875 186.566406 321.589844 186.566406 313.714844 L 186.566406 40.933594 C 186.566406 33.058594 180.128906 27.851562 173.414062 27.851562 Z M 242.355469 102.515625 C 241.433594 102.515625 240.515625 102.582031 239.601562 102.71875 C 238.691406 102.855469 237.792969 103.058594 236.910156 103.328125 C 236.027344 103.597656 235.167969 103.933594 234.335938 104.328125 C 233.503906 104.726562 232.703125 105.179688 231.9375 105.695312 C 231.171875 106.210938 230.449219 106.78125 229.769531 107.402344 C 229.085938 108.027344 228.457031 108.695312 227.875 109.414062 C 227.292969 110.128906 226.769531 110.882812 226.296875 111.679688 C 225.828125 112.472656 225.421875 113.296875 225.074219 114.152344 C 224.726562 115.007812 224.445312 115.882812 224.226562 116.78125 C 224.007812 117.675781 223.859375 118.585938 223.777344 119.503906 C 223.695312 120.421875 223.679688 121.34375 223.734375 122.265625 C 223.789062 123.183594 223.910156 124.097656 224.097656 125 C 224.289062 125.902344 224.542969 126.789062 224.863281 127.652344 C 225.183594 128.519531 225.566406 129.355469 226.011719 130.164062 C 226.453125 130.972656 226.957031 131.746094 227.515625 132.476562 C 228.074219 133.210938 228.683594 133.902344 229.347656 134.542969 L 272.125 177.324219 L 229.347656 220.101562 C 228.898438 220.53125 228.476562 220.980469 228.074219 221.453125 C 227.671875 221.921875 227.296875 222.414062 226.941406 222.921875 C 226.589844 223.429688 226.261719 223.957031 225.960938 224.496094 C 225.660156 225.039062 225.386719 225.59375 225.140625 226.160156 C 224.894531 226.726562 224.679688 227.308594 224.492188 227.898438 C 224.304688 228.488281 224.144531 229.085938 224.015625 229.691406 C 223.886719 230.296875 223.789062 230.90625 223.722656 231.519531 C 223.65625 232.136719 223.617188 232.753906 223.613281 233.371094 C 223.605469 233.992188 223.628906 234.609375 223.683594 235.226562 C 223.738281 235.84375 223.824219 236.453125 223.941406 237.0625 C 224.058594 237.671875 224.203125 238.273438 224.378906 238.863281 C 224.554688 239.457031 224.761719 240.042969 224.996094 240.613281 C 225.230469 241.1875 225.492188 241.75 225.78125 242.296875 C 226.070312 242.84375 226.386719 243.375 226.730469 243.890625 C 227.070312 244.40625 227.4375 244.902344 227.832031 245.382812 C 228.222656 245.859375 228.636719 246.316406 229.074219 246.757812 C 229.511719 247.195312 229.972656 247.609375 230.449219 248 C 230.929688 248.394531 231.425781 248.761719 231.941406 249.101562 C 232.457031 249.445312 232.988281 249.761719 233.535156 250.050781 C 234.082031 250.339844 234.644531 250.601562 235.214844 250.835938 C 235.789062 251.070312 236.371094 251.277344 236.964844 251.453125 C 237.558594 251.628906 238.160156 251.773438 238.769531 251.890625 C 239.375 252.003906 239.988281 252.089844 240.605469 252.148438 C 241.222656 252.203125 241.839844 252.226562 242.457031 252.21875 C 243.078125 252.214844 243.695312 252.175781 244.308594 252.109375 C 244.925781 252.042969 245.535156 251.941406 246.140625 251.816406 C 246.746094 251.6875 247.34375 251.527344 247.933594 251.339844 C 248.523438 251.152344 249.101562 250.933594 249.671875 250.691406 C 250.238281 250.445312 250.792969 250.171875 251.335938 249.871094 C 251.875 249.570312 252.402344 249.242188 252.910156 248.890625 C 253.417969 248.535156 253.90625 248.160156 254.378906 247.757812 C 254.851562 247.355469 255.300781 246.933594 255.726562 246.484375 L 298.507812 203.707031 L 341.285156 246.484375 C 341.714844 246.933594 342.164062 247.355469 342.636719 247.757812 C 343.105469 248.160156 343.597656 248.535156 344.105469 248.890625 C 344.613281 249.242188 345.136719 249.570312 345.679688 249.871094 C 346.21875 250.171875 346.773438 250.445312 347.34375 250.691406 C 347.910156 250.933594 348.492188 251.152344 349.082031 251.339844 C 349.671875 251.527344 350.269531 251.6875 350.875 251.816406 C 351.480469 251.941406 352.089844 252.042969 352.703125 252.109375 C 353.320312 252.175781 353.9375 252.214844 354.554688 252.21875 C 355.175781 252.226562 355.792969 252.203125 356.410156 252.148438 C 357.027344 252.089844 357.636719 252.003906 358.246094 251.890625 C 358.855469 251.773438 359.453125 251.628906 360.046875 251.453125 C 360.640625 251.277344 361.226562 251.070312 361.796875 250.835938 C 362.371094 250.601562 362.929688 250.339844 363.480469 250.050781 C 364.027344 249.761719 364.558594 249.445312 365.074219 249.101562 C 365.589844 248.761719 366.085938 248.394531 366.5625 248 C 367.042969 247.609375 367.5 247.195312 367.9375 246.757812 C 368.378906 246.316406 368.792969 245.859375 369.183594 245.382812 C 369.574219 244.902344 369.945312 244.40625 370.285156 243.890625 C 370.628906 243.375 370.945312 242.84375 371.234375 242.296875 C 371.523438 241.75 371.785156 241.1875 372.019531 240.613281 C 372.253906 240.042969 372.460938 239.457031 372.636719 238.863281 C 372.8125 238.273438 372.957031 237.671875 373.074219 237.0625 C 373.1875 236.453125 373.273438 235.84375 373.328125 235.226562 C 373.386719 234.609375 373.410156 233.992188 373.402344 233.371094 C 373.398438 232.753906 373.359375 232.136719 373.292969 231.519531 C 373.226562 230.90625 373.125 230.296875 373 229.691406 C 372.871094 229.085938 372.710938 228.488281 372.523438 227.898438 C 372.335938 227.308594 372.117188 226.726562 371.875 226.160156 C 371.628906 225.59375 371.355469 225.039062 371.054688 224.496094 C 370.753906 223.957031 370.425781 223.429688 370.074219 222.921875 C 369.71875 222.414062 369.34375 221.921875 368.941406 221.453125 C 368.539062 220.980469 368.113281 220.53125 367.667969 220.101562 L 324.890625 177.324219 L 367.667969 134.542969 C 368.339844 133.894531 368.957031 133.195312 369.523438 132.453125 C 370.085938 131.707031 370.59375 130.925781 371.042969 130.105469 C 371.488281 129.285156 371.875 128.433594 372.191406 127.554688 C 372.511719 126.679688 372.765625 125.78125 372.953125 124.867188 C 373.136719 123.949219 373.253906 123.023438 373.300781 122.089844 C 373.34375 121.15625 373.320312 120.226562 373.226562 119.296875 C 373.132812 118.367188 372.972656 117.449219 372.738281 116.542969 C 372.507812 115.636719 372.210938 114.753906 371.847656 113.894531 C 371.480469 113.03125 371.054688 112.203125 370.566406 111.40625 C 370.078125 110.609375 369.53125 109.855469 368.929688 109.140625 C 368.328125 108.425781 367.675781 107.761719 366.972656 107.144531 C 366.269531 106.527344 365.527344 105.964844 364.738281 105.460938 C 363.953125 104.957031 363.132812 104.515625 362.28125 104.132812 C 361.425781 103.75 360.550781 103.433594 359.648438 103.183594 C 358.75 102.9375 357.835938 102.753906 356.90625 102.640625 C 355.976562 102.53125 355.046875 102.488281 354.113281 102.515625 C 351.691406 102.585938 349.367188 103.113281 347.148438 104.089844 C 344.929688 105.066406 342.976562 106.425781 341.285156 108.164062 L 298.507812 150.941406 L 255.726562 108.164062 C 254.859375 107.269531 253.910156 106.472656 252.878906 105.769531 C 251.851562 105.0625 250.761719 104.46875 249.613281 103.984375 C 248.464844 103.5 247.28125 103.132812 246.058594 102.886719 C 244.835938 102.640625 243.601562 102.515625 242.355469 102.515625 Z M 242.355469 102.515625 " fill-opacity="1" fill-rule="nonzero"/></g></svg>