<svg xmlns="http://www.w3.org/2000/svg" xmlns:xlink="http://www.w3.org/1999/xlink" width="500" zoomAndPan="magnify" viewBox="0 0 375 374.999991" height="500" preserveAspectRatio="xMidYMid meet" version="1.0"><path fill="#ffffff" d="M 187.5 0 C 83.894531 0 0 84.460938 0 187.5 C 0 291.105469 84.460938 375 187.5 375 C 291.105469 375 375 290.539062 375 187.5 C 375 83.894531 291.105469 0 187.5 0 Z M 187.5 358.109375 C 93.46875 358.109375 16.890625 281.53125 16.890625 187.5 C 16.890625 93.46875 93.46875 16.890625 187.5 16.890625 C 281.53125 16.890625 358.109375 93.46875 358.109375 187.5 C 358.109375 281.53125 281.53125 358.109375 187.5 358.109375 Z M 187.5 358.109375 " fill-opacity="1" fill-rule="nonzero"/><path fill="#ffffff" d="M 164.414062 96.285156 L 139.078125 96.285156 C 132.882812 96.285156 127.816406 101.351562 127.816406 107.546875 L 127.816406 266.890625 C 127.816406 273.085938 132.882812 278.152344 139.078125 278.152344 L 164.414062 278.152344 C 170.609375 278.152344 175.675781 273.085938 175.675781 266.890625 L 175.675781 107.546875 C 175.675781 101.351562 170.609375 96.285156 164.414062 96.285156 Z M 164.414062 96.285156 " fill-opacity="1" fill-rule="nonzero"/><path fill="#ffffff" d="M 235.921875 96.285156 L 210.585938 96.285156 C 204.390625 96.285156 199.324219 101.351562 199.324219 107.546875 L 199.324219 266.890625 C 199.324219 273.085938 204.390625 278.152344 210.585938 278.152344 L 235.921875 278.152344 C 242.117188 278.152344 247.183594 273.085938 247.183594 266.890625 L 247.183594 107.546875 C 247.183594 101.351562 242.117188 96.285156 235.921875 96.285156 Z M 235.921875 96.285156 " fill-opacity="1" fill-rule="nonzero"/></svg>