<svg xmlns="http://www.w3.org/2000/svg" xmlns:xlink="http://www.w3.org/1999/xlink" width="500" zoomAndPan="magnify" viewBox="0 0 375 374.999991" height="500" preserveAspectRatio="xMidYMid meet" version="1.0"><path fill="#ffffff" d="M 188.421875 0.921875 C 182.121094 0.921875 175.835938 1.246094 169.570312 1.90625 C 163.300781 2.566406 157.085938 3.550781 150.921875 4.863281 C 144.757812 6.175781 138.679688 7.808594 132.6875 9.761719 C 126.695312 11.714844 120.820312 13.976562 115.066406 16.550781 C 109.316406 19.121094 103.710938 21.988281 98.257812 25.148438 C 92.808594 28.308594 87.535156 31.75 82.445312 35.464844 C 77.355469 39.179688 72.476562 43.152344 67.804688 47.382812 C 63.132812 51.613281 58.695312 56.078125 54.496094 60.777344 L 54.496094 14.777344 C 54.496094 13.867188 54.40625 12.96875 54.230469 12.074219 C 54.050781 11.183594 53.789062 10.316406 53.441406 9.476562 C 53.09375 8.636719 52.664062 7.835938 52.160156 7.082031 C 51.65625 6.324219 51.082031 5.625 50.4375 4.980469 C 49.792969 4.339844 49.09375 3.765625 48.335938 3.257812 C 47.582031 2.753906 46.78125 2.328125 45.941406 1.976562 C 45.101562 1.628906 44.234375 1.367188 43.34375 1.191406 C 42.449219 1.011719 41.550781 0.921875 40.640625 0.921875 C 39.730469 0.921875 38.828125 1.011719 37.9375 1.191406 C 37.046875 1.367188 36.179688 1.628906 35.339844 1.976562 C 34.496094 2.328125 33.699219 2.753906 32.941406 3.257812 C 32.1875 3.765625 31.488281 4.339844 30.84375 4.980469 C 30.199219 5.625 29.625 6.324219 29.121094 7.082031 C 28.613281 7.835938 28.1875 8.636719 27.839844 9.476562 C 27.492188 10.316406 27.230469 11.183594 27.050781 12.074219 C 26.875 12.96875 26.785156 13.867188 26.785156 14.777344 L 26.785156 107.144531 C 26.796875 108.050781 26.894531 108.945312 27.082031 109.832031 C 27.265625 110.71875 27.535156 111.582031 27.886719 112.417969 C 28.242188 113.25 28.671875 114.046875 29.175781 114.796875 C 29.683594 115.550781 30.253906 116.246094 30.898438 116.886719 C 31.539062 117.527344 32.234375 118.101562 32.984375 118.605469 C 33.738281 119.113281 34.53125 119.542969 35.367188 119.894531 C 36.203125 120.246094 37.0625 120.515625 37.949219 120.703125 C 38.835938 120.886719 39.734375 120.984375 40.640625 120.996094 L 133.003906 120.996094 C 133.914062 120.996094 134.816406 120.910156 135.707031 120.730469 C 136.601562 120.554688 137.464844 120.289062 138.308594 119.941406 C 139.148438 119.59375 139.945312 119.167969 140.703125 118.664062 C 141.457031 118.15625 142.160156 117.582031 142.800781 116.941406 C 143.445312 116.296875 144.019531 115.597656 144.523438 114.839844 C 145.03125 114.082031 145.457031 113.285156 145.804688 112.445312 C 146.152344 111.605469 146.414062 110.738281 146.59375 109.847656 C 146.769531 108.953125 146.859375 108.050781 146.859375 107.144531 C 146.859375 106.234375 146.769531 105.332031 146.59375 104.441406 C 146.414062 103.546875 146.152344 102.679688 145.804688 101.839844 C 145.457031 101 145.03125 100.203125 144.523438 99.445312 C 144.019531 98.6875 143.445312 97.988281 142.800781 97.347656 C 142.160156 96.703125 141.457031 96.128906 140.703125 95.625 C 139.945312 95.117188 139.148438 94.691406 138.308594 94.34375 C 137.464844 93.996094 136.601562 93.730469 135.707031 93.554688 C 134.816406 93.375 133.914062 93.289062 133.003906 93.289062 L 63.730469 93.289062 C 66.042969 90 68.476562 86.808594 71.042969 83.714844 C 73.605469 80.621094 76.285156 77.628906 79.085938 74.746094 C 81.882812 71.863281 84.792969 69.097656 87.808594 66.445312 C 90.828125 63.792969 93.945312 61.261719 97.164062 58.855469 C 100.382812 56.449219 103.691406 54.175781 107.089844 52.03125 C 110.488281 49.886719 113.964844 47.878906 117.519531 46.007812 C 121.078125 44.140625 124.703125 42.414062 128.398438 40.832031 C 132.089844 39.246094 135.839844 37.8125 139.648438 36.527344 C 143.453125 35.242188 147.304688 34.109375 151.203125 33.125 C 155.097656 32.144531 159.027344 31.320312 162.992188 30.648438 C 166.953125 29.976562 170.933594 29.464844 174.9375 29.109375 C 178.9375 28.753906 182.949219 28.554688 186.96875 28.519531 C 190.984375 28.480469 195 28.601562 199.007812 28.878906 C 203.015625 29.160156 207.007812 29.59375 210.980469 30.191406 C 214.957031 30.785156 218.898438 31.535156 222.8125 32.441406 C 226.730469 33.347656 230.601562 34.410156 234.433594 35.621094 C 238.261719 36.835938 242.039062 38.199219 245.761719 39.710938 C 249.484375 41.222656 253.144531 42.878906 256.734375 44.679688 C 260.328125 46.480469 263.84375 48.421875 267.28125 50.5 C 270.71875 52.578125 274.070312 54.789062 277.335938 57.132812 C 280.597656 59.480469 283.765625 61.949219 286.832031 64.542969 C 289.898438 67.136719 292.859375 69.847656 295.714844 72.679688 C 298.570312 75.507812 301.304688 78.445312 303.929688 81.488281 C 306.550781 84.535156 309.046875 87.679688 311.417969 90.921875 C 313.792969 94.164062 316.03125 97.496094 318.140625 100.917969 C 320.25 104.335938 322.222656 107.835938 324.054688 111.410156 C 325.886719 114.988281 327.574219 118.628906 329.121094 122.339844 C 330.664062 126.050781 332.058594 129.8125 333.304688 133.632812 C 334.550781 137.453125 335.644531 141.316406 336.585938 145.222656 C 337.527344 149.128906 338.3125 153.066406 338.941406 157.035156 C 339.574219 161.003906 340.042969 164.992188 340.359375 169 C 340.671875 173.003906 340.828125 177.015625 340.824219 181.035156 C 340.824219 181.945312 340.914062 182.84375 341.089844 183.738281 C 341.269531 184.628906 341.53125 185.496094 341.878906 186.335938 C 342.226562 187.175781 342.65625 187.976562 343.160156 188.730469 C 343.664062 189.488281 344.238281 190.1875 344.882812 190.832031 C 345.527344 191.472656 346.226562 192.046875 346.984375 192.554688 C 347.738281 193.058594 348.539062 193.488281 349.378906 193.835938 C 350.21875 194.183594 351.085938 194.445312 351.976562 194.621094 C 352.867188 194.800781 353.769531 194.890625 354.679688 194.890625 C 355.589844 194.890625 356.492188 194.800781 357.382812 194.621094 C 358.273438 194.445312 359.140625 194.183594 359.980469 193.835938 C 360.820312 193.488281 361.621094 193.058594 362.378906 192.554688 C 363.132812 192.046875 363.832031 191.472656 364.476562 190.832031 C 365.121094 190.1875 365.695312 189.488281 366.199219 188.730469 C 366.703125 187.976562 367.132812 187.175781 367.480469 186.335938 C 367.828125 185.496094 368.089844 184.628906 368.269531 183.738281 C 368.445312 182.84375 368.535156 181.945312 368.535156 181.035156 C 368.53125 178.085938 368.457031 175.144531 368.308594 172.199219 C 368.160156 169.257812 367.941406 166.320312 367.652344 163.386719 C 367.359375 160.453125 366.996094 157.53125 366.5625 154.617188 C 366.125 151.703125 365.621094 148.800781 365.042969 145.910156 C 364.464844 143.019531 363.820312 140.144531 363.101562 137.289062 C 362.382812 134.429688 361.59375 131.589844 360.738281 128.773438 C 359.878906 125.953125 358.953125 123.15625 357.960938 120.382812 C 356.964844 117.609375 355.902344 114.859375 354.773438 112.136719 C 353.644531 109.414062 352.449219 106.722656 351.191406 104.058594 C 349.929688 101.394531 348.601562 98.765625 347.210938 96.167969 C 345.824219 93.570312 344.371094 91.007812 342.855469 88.480469 C 341.339844 85.953125 339.761719 83.464844 338.125 81.015625 C 336.484375 78.5625 334.789062 76.15625 333.03125 73.789062 C 331.277344 71.421875 329.464844 69.101562 327.59375 66.824219 C 325.726562 64.546875 323.800781 62.316406 321.820312 60.132812 C 319.84375 57.949219 317.8125 55.816406 315.726562 53.730469 C 313.644531 51.648438 311.511719 49.617188 309.328125 47.636719 C 307.144531 45.65625 304.914062 43.734375 302.636719 41.863281 C 300.355469 39.992188 298.035156 38.179688 295.667969 36.425781 C 293.300781 34.667969 290.894531 32.972656 288.445312 31.335938 C 285.996094 29.695312 283.507812 28.121094 280.980469 26.605469 C 278.453125 25.089844 275.890625 23.636719 273.289062 22.246094 C 270.691406 20.855469 268.0625 19.53125 265.398438 18.269531 C 262.734375 17.007812 260.042969 15.8125 257.320312 14.683594 C 254.597656 13.554688 251.851562 12.492188 249.078125 11.496094 C 246.300781 10.503906 243.503906 9.578125 240.6875 8.71875 C 237.867188 7.863281 235.027344 7.074219 232.171875 6.359375 C 229.3125 5.640625 226.4375 4.992188 223.546875 4.414062 C 220.660156 3.835938 217.757812 3.332031 214.84375 2.898438 C 211.925781 2.460938 209.003906 2.097656 206.070312 1.808594 C 203.140625 1.515625 200.203125 1.296875 197.257812 1.148438 C 194.316406 1 191.371094 0.925781 188.421875 0.921875 Z M 188.421875 0.921875 " fill-opacity="1" fill-rule="nonzero"/><path fill="#ffffff" d="M 336.207031 241.070312 L 243.84375 241.070312 C 242.933594 241.070312 242.03125 241.160156 241.140625 241.335938 C 240.246094 241.515625 239.378906 241.777344 238.539062 242.125 C 237.699219 242.472656 236.902344 242.902344 236.144531 243.40625 C 235.386719 243.910156 234.6875 244.484375 234.046875 245.128906 C 233.402344 245.773438 232.828125 246.472656 232.324219 247.230469 C 231.816406 247.984375 231.390625 248.785156 231.042969 249.625 C 230.695312 250.464844 230.429688 251.332031 230.253906 252.222656 C 230.078125 253.117188 229.988281 254.015625 229.988281 254.925781 C 229.988281 255.835938 230.078125 256.738281 230.253906 257.628906 C 230.429688 258.519531 230.695312 259.386719 231.042969 260.226562 C 231.390625 261.070312 231.816406 261.867188 232.324219 262.625 C 232.828125 263.378906 233.402344 264.078125 234.046875 264.722656 C 234.6875 265.367188 235.386719 265.941406 236.144531 266.445312 C 236.902344 266.953125 237.699219 267.378906 238.539062 267.726562 C 239.378906 268.074219 240.246094 268.335938 241.140625 268.515625 C 242.03125 268.691406 242.933594 268.78125 243.84375 268.78125 L 313.117188 268.78125 C 310.804688 272.070312 308.367188 275.257812 305.804688 278.355469 C 303.242188 281.449219 300.5625 284.4375 297.761719 287.320312 C 294.964844 290.203125 292.054688 292.972656 289.039062 295.625 C 286.019531 298.277344 282.902344 300.808594 279.683594 303.214844 C 276.464844 305.621094 273.15625 307.894531 269.757812 310.039062 C 266.359375 312.183594 262.882812 314.191406 259.324219 316.058594 C 255.769531 317.929688 252.144531 319.65625 248.449219 321.238281 C 244.757812 322.820312 241.007812 324.253906 237.199219 325.542969 C 233.394531 326.828125 229.542969 327.960938 225.644531 328.941406 C 221.746094 329.925781 217.820312 330.75 213.855469 331.421875 C 209.894531 332.089844 205.914062 332.605469 201.910156 332.960938 C 197.90625 333.316406 193.898438 333.511719 189.878906 333.550781 C 185.863281 333.589844 181.847656 333.46875 177.839844 333.191406 C 173.832031 332.910156 169.839844 332.472656 165.867188 331.878906 C 161.890625 331.285156 157.949219 330.535156 154.03125 329.625 C 150.117188 328.71875 146.246094 327.660156 142.414062 326.445312 C 138.585938 325.234375 134.808594 323.871094 131.085938 322.359375 C 127.359375 320.847656 123.703125 319.191406 120.113281 317.390625 C 116.519531 315.589844 113.003906 313.648438 109.566406 311.570312 C 106.128906 309.492188 102.777344 307.277344 99.511719 304.933594 C 96.25 302.589844 93.082031 300.121094 90.015625 297.527344 C 86.945312 294.929688 83.984375 292.21875 81.132812 289.390625 C 78.277344 286.5625 75.539062 283.625 72.917969 280.578125 C 70.296875 277.535156 67.800781 274.390625 65.429688 271.148438 C 63.054688 267.902344 60.816406 264.574219 58.707031 261.152344 C 56.597656 257.730469 54.625 254.234375 52.792969 250.65625 C 50.960938 247.082031 49.273438 243.4375 47.726562 239.730469 C 46.183594 236.019531 44.789062 232.253906 43.542969 228.433594 C 42.292969 224.613281 41.199219 220.75 40.261719 216.84375 C 39.320312 212.9375 38.535156 209 37.902344 205.03125 C 37.273438 201.0625 36.800781 197.078125 36.488281 193.070312 C 36.175781 189.066406 36.019531 185.050781 36.023438 181.035156 C 36.023438 180.125 35.933594 179.222656 35.757812 178.332031 C 35.578125 177.4375 35.316406 176.574219 34.96875 175.734375 C 34.621094 174.890625 34.191406 174.09375 33.6875 173.335938 C 33.183594 172.582031 32.609375 171.882812 31.964844 171.238281 C 31.320312 170.59375 30.621094 170.019531 29.863281 169.515625 C 29.109375 169.007812 28.308594 168.582031 27.46875 168.234375 C 26.628906 167.886719 25.761719 167.625 24.871094 167.445312 C 23.976562 167.269531 23.078125 167.179688 22.167969 167.179688 C 21.257812 167.179688 20.355469 167.269531 19.464844 167.445312 C 18.574219 167.625 17.707031 167.886719 16.867188 168.234375 C 16.023438 168.582031 15.226562 169.007812 14.46875 169.515625 C 13.714844 170.019531 13.015625 170.59375 12.371094 171.238281 C 11.726562 171.882812 11.152344 172.582031 10.648438 173.335938 C 10.140625 174.09375 9.714844 174.890625 9.367188 175.734375 C 9.019531 176.574219 8.757812 177.4375 8.578125 178.332031 C 8.402344 179.222656 8.3125 180.125 8.3125 181.035156 C 8.304688 185.558594 8.46875 190.078125 8.800781 194.59375 C 9.132812 199.105469 9.636719 203.601562 10.308594 208.078125 C 10.980469 212.554688 11.820312 216.996094 12.828125 221.410156 C 13.835938 225.820312 15.007812 230.191406 16.347656 234.511719 C 17.683594 238.835938 19.183594 243.105469 20.84375 247.316406 C 22.5 251.527344 24.316406 255.667969 26.289062 259.742188 C 28.261719 263.816406 30.382812 267.808594 32.65625 271.722656 C 34.929688 275.636719 37.347656 279.457031 39.910156 283.1875 C 42.472656 286.921875 45.167969 290.550781 48.003906 294.078125 C 50.839844 297.605469 53.804688 301.019531 56.898438 304.324219 C 59.992188 307.628906 63.207031 310.808594 66.539062 313.871094 C 69.871094 316.933594 73.316406 319.863281 76.871094 322.664062 C 80.425781 325.464844 84.082031 328.128906 87.835938 330.65625 C 91.59375 333.179688 95.4375 335.5625 99.375 337.796875 C 103.308594 340.03125 107.324219 342.117188 111.414062 344.046875 C 115.507812 345.980469 119.667969 347.757812 123.894531 349.375 C 128.121094 350.992188 132.402344 352.449219 136.738281 353.746094 C 141.074219 355.042969 145.453125 356.171875 149.875 357.136719 C 154.296875 358.101562 158.75 358.898438 163.230469 359.527344 C 167.714844 360.15625 172.214844 360.617188 176.730469 360.90625 C 181.246094 361.195312 185.765625 361.3125 190.292969 361.261719 C 194.820312 361.210938 199.335938 360.988281 203.84375 360.59375 C 208.351562 360.203125 212.839844 359.640625 217.308594 358.910156 C 221.773438 358.179688 226.207031 357.28125 230.605469 356.214844 C 235.003906 355.148438 239.355469 353.917969 243.660156 352.523438 C 247.96875 351.132812 252.214844 349.578125 256.402344 347.863281 C 260.589844 346.148438 264.710938 344.277344 268.757812 342.25 C 272.804688 340.226562 276.769531 338.050781 280.652344 335.726562 C 284.535156 333.402344 288.328125 330.933594 292.023438 328.324219 C 295.71875 325.714844 299.3125 322.96875 302.804688 320.085938 C 306.292969 317.203125 309.667969 314.195312 312.933594 311.058594 C 316.195312 307.921875 319.335938 304.667969 322.351562 301.292969 L 322.351562 347.289062 C 322.351562 348.199219 322.441406 349.101562 322.617188 349.992188 C 322.796875 350.886719 323.058594 351.753906 323.40625 352.59375 C 323.753906 353.433594 324.183594 354.230469 324.6875 354.988281 C 325.191406 355.746094 325.765625 356.445312 326.410156 357.085938 C 327.054688 357.730469 327.753906 358.304688 328.507812 358.808594 C 329.265625 359.316406 330.0625 359.742188 330.90625 360.089844 C 331.746094 360.4375 332.613281 360.703125 333.503906 360.878906 C 334.394531 361.054688 335.296875 361.144531 336.207031 361.144531 C 337.117188 361.144531 338.015625 361.054688 338.910156 360.878906 C 339.800781 360.703125 340.667969 360.4375 341.507812 360.089844 C 342.347656 359.742188 343.148438 359.316406 343.902344 358.808594 C 344.660156 358.304688 345.359375 357.730469 346.003906 357.085938 C 346.648438 356.445312 347.222656 355.746094 347.726562 354.988281 C 348.230469 354.230469 348.660156 353.433594 349.007812 352.59375 C 349.355469 351.753906 349.617188 350.886719 349.796875 349.992188 C 349.972656 349.101562 350.0625 348.199219 350.0625 347.289062 L 350.0625 254.925781 C 350.050781 254.019531 349.949219 253.121094 349.765625 252.234375 C 349.578125 251.347656 349.3125 250.488281 348.957031 249.652344 C 348.605469 248.816406 348.175781 248.023438 347.671875 247.273438 C 347.164062 246.519531 346.589844 245.824219 345.949219 245.183594 C 345.308594 244.542969 344.613281 243.96875 343.859375 243.460938 C 343.109375 242.957031 342.316406 242.527344 341.480469 242.175781 C 340.644531 241.820312 339.785156 241.554688 338.898438 241.367188 C 338.011719 241.183594 337.113281 241.082031 336.207031 241.070312 Z M 336.207031 241.070312 " fill-opacity="1" fill-rule="nonzero"/></svg>