<svg xmlns="http://www.w3.org/2000/svg" xmlns:xlink="http://www.w3.org/1999/xlink" width="500" zoomAndPan="magnify" viewBox="0 0 375 374.999991" height="500" preserveAspectRatio="xMidYMid meet" version="1.0"><defs><clipPath id="b25bae87ad"><path d="M 73 20.859375 L 159 20.859375 L 159 353.859375 L 73 353.859375 Z M 73 20.859375 " clip-rule="nonzero"/></clipPath></defs><path fill="#ffffff" d="M 239.1875 92.152344 C 233.882812 86.851562 225.289062 86.851562 219.988281 92.152344 C 214.679688 97.453125 214.679688 106.042969 219.988281 111.335938 C 240.308594 131.640625 251.503906 158.640625 251.503906 187.359375 C 251.503906 216.078125 240.308594 243.070312 219.988281 263.382812 C 214.679688 268.683594 214.679688 277.265625 219.988281 282.566406 C 222.636719 285.214844 226.109375 286.542969 229.585938 286.542969 C 233.058594 286.542969 236.535156 285.214844 239.1875 282.566406 C 264.636719 257.136719 278.664062 223.320312 278.664062 187.359375 C 278.664062 151.386719 264.636719 117.578125 239.1875 92.152344 " fill-opacity="1" fill-rule="nonzero"/><path fill="#ffffff" d="M 292.726562 38.65625 C 287.417969 33.359375 278.828125 33.359375 273.527344 38.65625 C 268.21875 43.957031 268.21875 52.542969 273.527344 57.84375 C 344.996094 129.253906 344.996094 245.457031 273.527344 316.867188 C 268.21875 322.171875 268.21875 330.753906 273.527344 336.054688 C 276.175781 338.703125 279.648438 340.03125 283.125 340.03125 C 286.597656 340.03125 290.074219 338.703125 292.726562 336.054688 C 374.785156 254.0625 374.785156 120.652344 292.726562 38.65625 " fill-opacity="1" fill-rule="nonzero"/><path fill="#ffffff" d="M 0.167969 263.636719 L 57.464844 263.636719 L 57.464844 111.082031 L 0.167969 111.082031 L 0.167969 263.636719 " fill-opacity="1" fill-rule="nonzero"/><g clip-path="url(#b25bae87ad)"><path fill="#ffffff" d="M 73.765625 270.316406 L 158.226562 353.867188 L 158.226562 20.851562 L 73.765625 104.402344 L 73.765625 270.316406 " fill-opacity="1" fill-rule="nonzero"/></g></svg>