<svg xmlns="http://www.w3.org/2000/svg" xmlns:xlink="http://www.w3.org/1999/xlink" width="500" zoomAndPan="magnify" viewBox="0 0 375 374.999991" height="500" preserveAspectRatio="xMidYMid meet" version="1.0"><defs><clipPath id="fa97355fe2"><path d="M 91.894531 157 L 283.144531 157 L 283.144531 337.753906 L 91.894531 337.753906 Z M 91.894531 157 " clip-rule="nonzero"/></clipPath><clipPath id="1890552305"><path d="M 149 50.503906 L 226 50.503906 L 226 231 L 149 231 Z M 149 50.503906 " clip-rule="nonzero"/></clipPath></defs><g clip-path="url(#fa97355fe2)"><path fill="#ffffff" d="M 273.582031 157.765625 C 267.84375 157.765625 264.019531 161.59375 264.019531 167.335938 L 264.019531 194.128906 C 264.019531 241.972656 225.769531 266.851562 187.519531 266.851562 C 151.179688 266.851562 111.019531 243.886719 111.019531 194.128906 L 111.019531 167.335938 C 111.019531 161.59375 107.195312 157.765625 101.457031 157.765625 C 95.71875 157.765625 91.894531 161.59375 91.894531 167.335938 L 91.894531 194.128906 C 91.894531 245.800781 128.230469 274.503906 168.394531 282.160156 L 168.394531 320.433594 L 139.707031 320.433594 C 133.96875 320.433594 130.144531 324.261719 130.144531 328.089844 C 130.144531 331.917969 133.96875 337.660156 139.707031 337.660156 L 235.332031 337.660156 C 241.070312 337.660156 244.894531 333.832031 244.894531 328.089844 C 244.894531 322.347656 241.070312 318.523438 235.332031 318.523438 L 206.644531 318.523438 L 206.644531 280.246094 C 246.804688 272.589844 283.144531 241.972656 283.144531 192.214844 L 283.144531 167.335938 C 283.144531 161.59375 279.320312 157.765625 273.582031 157.765625 Z M 273.582031 157.765625 " fill-opacity="1" fill-rule="nonzero"/></g><g clip-path="url(#1890552305)"><path fill="#ffffff" d="M 187.519531 230.488281 C 208.554688 230.488281 225.769531 215.179688 225.769531 194.128906 L 225.769531 86.957031 C 225.769531 67.820312 208.554688 50.597656 187.519531 50.597656 C 166.480469 50.597656 149.269531 65.90625 149.269531 86.957031 L 149.269531 194.128906 C 149.269531 213.265625 166.480469 230.488281 187.519531 230.488281 Z M 187.519531 230.488281 " fill-opacity="1" fill-rule="nonzero"/></g></svg>