<svg xmlns="http://www.w3.org/2000/svg" xmlns:xlink="http://www.w3.org/1999/xlink" width="500" zoomAndPan="magnify" viewBox="0 0 375 374.999991" height="500" preserveAspectRatio="xMidYMid meet" version="1.0"><defs><clipPath id="c56a65cfcb"><path d="M 62 65 L 364 65 L 364 331.078125 L 62 331.078125 Z M 62 65 " clip-rule="nonzero"/></clipPath><clipPath id="1ce0c99516"><path d="M 330 43.828125 L 375 43.828125 L 375 88 L 330 88 Z M 330 43.828125 " clip-rule="nonzero"/></clipPath></defs><g clip-path="url(#c56a65cfcb)"><path fill="#ffffff" d="M 96.589844 65.015625 L 62.132812 109.027344 L 101.105469 70.785156 L 194.101562 73.105469 L 161.339844 109.828125 L 201.425781 73.289062 L 209.597656 73.488281 L 251.066406 121.195312 L 149.65625 124.136719 L 107.019531 78.332031 L 143.035156 124.328125 L 67.480469 126.515625 L 146.144531 131.179688 L 205.882812 331.078125 L 153.664062 131.628906 L 260.917969 137.988281 L 205.882812 331.078125 L 276.164062 138.894531 L 328.246094 141.988281 L 205.882812 331.078125 L 363.324219 126.515625 L 315.171875 65.015625 Z M 216.746094 73.667969 L 299.074219 75.71875 L 271.058594 120.617188 L 267.714844 120.714844 Z M 333.441406 118.804688 L 272.679688 120.570312 L 311.476562 83.640625 L 331.585938 115.835938 Z M 333.441406 118.804688 " fill-opacity="1" fill-rule="evenodd"/></g><path fill="#ffffff" d="M 45.695312 135.132812 L 47.804688 157.84375 L 49.917969 135.132812 L 72.636719 133.019531 L 49.917969 130.910156 L 47.804688 108.195312 L 45.695312 130.910156 L 22.976562 133.019531 Z M 45.695312 135.132812 " fill-opacity="1" fill-rule="evenodd"/><g clip-path="url(#1ce0c99516)"><path fill="#ffffff" d="M 350.957031 67.652344 L 352.824219 87.742188 L 354.699219 67.652344 L 374.789062 65.785156 L 354.699219 63.917969 L 352.824219 43.828125 L 350.957031 63.917969 L 330.863281 65.785156 Z M 350.957031 67.652344 " fill-opacity="1" fill-rule="evenodd"/></g><path fill="#ffffff" d="M 39.226562 208.613281 L 72.121094 205.554688 L 39.226562 202.492188 L 36.167969 169.609375 L 33.105469 202.492188 L 0.210938 205.554688 L 33.105469 208.613281 L 36.167969 241.496094 Z M 39.226562 208.613281 " fill-opacity="1" fill-rule="evenodd"/><path fill="#ffffff" d="M 115.957031 257.175781 L 111.652344 210.910156 L 107.347656 257.175781 L 61.070312 261.476562 L 107.347656 265.78125 L 111.652344 312.042969 L 115.957031 265.78125 L 162.238281 261.476562 Z M 115.957031 257.175781 " fill-opacity="1" fill-rule="evenodd"/></svg>