<svg xmlns="http://www.w3.org/2000/svg" xmlns:xlink="http://www.w3.org/1999/xlink" width="500" zoomAndPan="magnify" viewBox="0 0 375 374.999991" height="500" preserveAspectRatio="xMidYMid meet" version="1.0"><defs><clipPath id="6404e02eae"><path d="M 37.5 73.246094 L 345.75 73.246094 L 345.75 301.996094 L 37.5 301.996094 Z M 37.5 73.246094 " clip-rule="nonzero"/></clipPath></defs><g clip-path="url(#6404e02eae)"><path fill="#ffffff" d="M 345.667969 73.246094 L 37.582031 73.246094 L 37.582031 301.996094 L 345.667969 301.996094 Z M 337.964844 80.957031 L 337.964844 271.152344 L 289.054688 207.285156 L 251.957031 251.75 L 150.164062 136.21875 L 45.285156 241.339844 L 45.285156 80.957031 Z M 45.285156 294.285156 L 45.285156 252.132812 L 149.90625 147.398438 L 252.214844 263.445312 L 288.800781 219.363281 L 337.964844 283.492188 L 337.964844 294.15625 L 45.285156 294.15625 Z M 45.285156 294.285156 " fill-opacity="1" fill-rule="nonzero"/></g><path fill="#ffffff" d="M 245.667969 145.597656 C 254.652344 145.597656 262.996094 139.816406 266.078125 131.332031 C 269.160156 122.722656 266.464844 112.828125 259.402344 107.046875 C 252.34375 101.261719 242.203125 100.621094 234.5 105.246094 C 226.796875 110 222.691406 119.125 224.488281 128.121094 C 226.414062 138.273438 235.398438 145.597656 245.667969 145.597656 Z M 245.667969 109.871094 C 251.445312 109.871094 256.835938 113.597656 258.761719 119.125 C 260.816406 124.652344 259.019531 130.949219 254.527344 134.804688 C 250.03125 138.53125 243.355469 139.042969 238.351562 135.960938 C 233.34375 132.875 230.777344 126.964844 231.933594 121.179688 C 233.214844 114.757812 239.121094 109.871094 245.667969 109.871094 Z M 245.667969 109.871094 " fill-opacity="1" fill-rule="nonzero"/></svg>