<svg xmlns="http://www.w3.org/2000/svg" xmlns:xlink="http://www.w3.org/1999/xlink" width="500" zoomAndPan="magnify" viewBox="0 0 375 374.999991" height="500" preserveAspectRatio="xMidYMid meet" version="1.0"><defs><clipPath id="46d9def0d4"><path d="M 0 81 L 374.839844 81 L 374.839844 294 L 0 294 Z M 0 81 " clip-rule="nonzero"/></clipPath></defs><g clip-path="url(#46d9def0d4)"><path fill="#ffffff" d="M 362.539062 93.515625 C 354.832031 88.824219 345.480469 88.550781 337.511719 92.742188 L 278.640625 123.667969 L 278.640625 119.808594 C 278.640625 98.671875 261.484375 81.476562 240.390625 81.476562 L 30.589844 81.476562 C 9.496094 81.476562 -7.660156 98.671875 -7.660156 119.808594 L -7.660156 255.566406 C -7.660156 276.703125 9.496094 293.898438 30.589844 293.898438 L 240.390625 293.898438 C 261.484375 293.898438 278.640625 276.703125 278.640625 255.566406 L 278.640625 251.707031 L 337.511719 282.628906 C 341.257812 284.601562 345.304688 285.574219 349.351562 285.574219 C 353.910156 285.574219 358.453125 284.328125 362.539062 281.855469 C 370.246094 277.1875 374.839844 269.015625 374.839844 259.996094 L 374.839844 115.378906 C 374.839844 106.355469 370.246094 98.183594 362.539062 93.515625 Z M 253.140625 255.566406 C 253.140625 262.613281 247.425781 268.34375 240.390625 268.34375 L 30.589844 268.34375 C 23.554688 268.34375 17.839844 262.613281 17.839844 255.566406 L 17.839844 119.808594 C 17.839844 112.757812 23.554688 107.03125 30.589844 107.03125 L 240.390625 107.03125 C 247.425781 107.03125 253.140625 112.757812 253.140625 119.808594 Z M 349.339844 259.996094 L 278.640625 222.859375 L 278.640625 152.511719 L 349.339844 115.378906 L 349.402344 260.019531 Z M 349.339844 259.996094 " fill-opacity="1" fill-rule="nonzero"/></g></svg>