<svg xmlns="http://www.w3.org/2000/svg" xmlns:xlink="http://www.w3.org/1999/xlink" width="500" zoomAndPan="magnify" viewBox="0 0 375 374.999991" height="500" preserveAspectRatio="xMidYMid meet" version="1.0"><defs><clipPath id="e4fb20363e"><path d="M 0 15.703125 L 375 15.703125 L 375 359.203125 L 0 359.203125 Z M 0 15.703125 " clip-rule="nonzero"/></clipPath></defs><g clip-path="url(#e4fb20363e)"><path fill="#ffffff" d="M 102.304688 15.703125 C 45.84375 15.703125 0.0859375 61.449219 0.0859375 117.894531 C 0.0859375 216.898438 116 311.605469 168.710938 352.921875 C 168.71875 352.921875 168.730469 352.921875 168.738281 352.921875 C 171.445312 354.957031 174.398438 356.511719 177.609375 357.585938 C 180.820312 358.660156 184.117188 359.199219 187.5 359.203125 C 190.878906 359.195312 194.171875 358.65625 197.375 357.582031 C 200.578125 356.507812 203.53125 354.953125 206.230469 352.921875 L 206.289062 352.921875 C 206.648438 352.640625 207.144531 352.230469 207.511719 351.945312 C 207.546875 351.917969 207.597656 351.882812 207.632812 351.855469 C 207.644531 351.84375 207.652344 351.832031 207.664062 351.824219 C 260.921875 310.015625 374.914062 216.140625 374.914062 117.894531 C 374.914062 61.449219 329.15625 15.703125 272.695312 15.703125 C 218.738281 15.703125 187.5 62.542969 187.5 62.542969 C 187.5 62.542969 156.261719 15.703125 102.304688 15.703125 Z M 244.390625 93.863281 C 247.277344 93.285156 249.972656 95.484375 249.972656 98.4375 L 249.972656 137.015625 C 249.972656 139.324219 248.332031 141.316406 246.066406 141.769531 L 203.117188 154.640625 L 203.117188 237.070312 C 203.117188 260.253906 195.191406 281.136719 167.703125 281.136719 C 149.898438 281.136719 140.644531 270.796875 140.644531 255.183594 C 140.644531 214.527344 187.5 228.910156 187.5 209.441406 L 187.5 109.386719 Z M 244.390625 93.863281 " fill-opacity="1" fill-rule="nonzero"/></g></svg>