<svg xmlns="http://www.w3.org/2000/svg" xmlns:xlink="http://www.w3.org/1999/xlink" width="500" zoomAndPan="magnify" viewBox="0 0 375 374.999991" height="500" preserveAspectRatio="xMidYMid meet" version="1.0"><path fill="#ffffff" d="M 187.5 0 C 84.375 0 0 84.375 0 187.5 C 0 290.625 84.375 375 187.5 375 C 290.625 375 375 290.625 375 187.5 C 375 84.375 290.625 0 187.5 0 Z M 263.570312 270.113281 C 260.042969 270.113281 258.28125 268.351562 254.757812 266.585938 C 228.300781 250.707031 194.792969 241.894531 159.523438 241.894531 C 140.117188 241.894531 118.96875 245.417969 101.324219 248.945312 C 97.800781 248.945312 94.273438 250.707031 92.511719 250.707031 C 85.460938 250.707031 80.175781 245.417969 80.175781 238.367188 C 80.175781 231.320312 83.699219 226.03125 90.75 226.03125 C 113.679688 220.742188 136.613281 217.21875 161.304688 217.21875 C 201.863281 217.21875 238.914062 227.792969 270.65625 245.4375 C 274.179688 248.960938 277.707031 250.726562 277.707031 257.773438 C 274.144531 266.585938 268.855469 270.113281 263.570312 270.113281 Z M 282.957031 220.742188 C 279.429688 220.742188 275.90625 218.980469 272.382812 217.21875 C 242.398438 197.8125 200.0625 187.238281 154.21875 187.238281 C 131.289062 187.238281 110.117188 190.761719 94.257812 194.289062 C 90.730469 196.050781 88.96875 196.050781 85.445312 196.050781 C 76.632812 196.050781 71.324219 189 71.324219 181.929688 C 71.324219 173.117188 74.851562 169.59375 83.664062 166.050781 C 104.832031 160.761719 126 155.476562 155.980469 155.476562 C 205.367188 155.476562 251.210938 167.8125 290.023438 190.742188 C 295.3125 194.269531 298.835938 199.554688 298.835938 204.863281 C 297.074219 213.675781 291.789062 220.742188 282.957031 220.742188 Z M 305.886719 164.289062 C 302.363281 164.289062 300.601562 162.523438 295.3125 160.761719 C 260.042969 141.355469 208.894531 129.019531 159.507812 129.019531 C 134.8125 129.019531 108.355469 132.542969 85.425781 137.832031 C 81.898438 137.832031 80.136719 139.59375 74.851562 139.59375 C 64.273438 141.375 57.207031 132.542969 57.207031 121.96875 C 57.207031 111.394531 62.492188 106.085938 69.542969 104.324219 C 97.78125 97.273438 127.761719 93.75 159.507812 93.75 C 214.179688 93.75 270.617188 106.085938 314.71875 129.019531 C 320.007812 132.542969 325.292969 137.832031 325.292969 146.664062 C 323.53125 157.238281 316.460938 164.289062 305.886719 164.289062 Z M 305.886719 164.289062 " fill-opacity="1" fill-rule="nonzero"/></svg>