<svg xmlns="http://www.w3.org/2000/svg" xmlns:xlink="http://www.w3.org/1999/xlink" width="500" zoomAndPan="magnify" viewBox="0 0 375 374.999991" height="500" preserveAspectRatio="xMidYMid meet" version="1.0"><path fill="#ffffff" d="M 187.339844 -0.109375 C 83.820312 -0.109375 -0.109375 83.816406 -0.109375 187.339844 C -0.109375 290.855469 83.820312 374.785156 187.339844 374.785156 C 290.863281 374.785156 374.785156 290.855469 374.785156 187.339844 C 374.785156 83.8125 290.863281 -0.109375 187.339844 -0.109375 Z M 290.574219 238.949219 C 290.574219 242.675781 288.589844 246.121094 285.359375 247.984375 C 283.746094 248.914062 281.945312 249.382812 280.148438 249.382812 C 278.347656 249.382812 276.546875 248.914062 274.933594 247.984375 L 185.910156 196.589844 L 185.910156 238.949219 C 185.910156 242.675781 183.921875 246.121094 180.695312 247.984375 C 179.078125 248.914062 177.277344 249.382812 175.480469 249.382812 C 173.679688 249.382812 171.878906 248.914062 170.265625 247.984375 L 80.867188 196.371094 C 77.636719 194.511719 75.652344 191.058594 75.652344 187.339844 C 75.652344 183.613281 77.636719 180.164062 80.867188 178.304688 L 170.261719 126.691406 C 173.488281 124.828125 177.460938 124.828125 180.691406 126.691406 C 183.917969 128.550781 185.90625 132 185.90625 135.722656 L 185.90625 178.089844 L 274.925781 126.691406 C 278.15625 124.828125 282.128906 124.828125 285.355469 126.691406 C 288.585938 128.550781 290.570312 132 290.570312 135.722656 L 290.570312 238.949219 Z M 290.574219 238.949219 " fill-opacity="1" fill-rule="nonzero"/></svg>